HIERARCHY
ROOT joint_0
{
	OFFSET 0.000000 0.000000 0.000000
	CHANNELS 6 Xposition Yposition Zposition Zrotation Yrotation Xrotation 
	JOINT joint_1
	{
		OFFSET 3.886261 -0.864090 119.041016
		CHANNELS 3 Zrotation Yrotation Xrotation
		JOINT joint_2
		{
			OFFSET -8.814819 -1.400200 108.366943
			CHANNELS 3 Zrotation Yrotation Xrotation
			JOINT joint_3
			{
				OFFSET -10.127777 -1.846550 108.123047
				CHANNELS 3 Zrotation Yrotation Xrotation
				JOINT joint_4
				{
					OFFSET -0.104309 -2.852760 150.227051
					CHANNELS 3 Zrotation Yrotation Xrotation
					JOINT joint_5
					{
						OFFSET 20.206146 2.292160 92.163940
						CHANNELS 3 Zrotation Yrotation Xrotation
						End Site
						{
							OFFSET 0.000000 0.000000 0.000000
						}
					}
				}
				JOINT joint_6
				{
					OFFSET 0.345886 -34.260384 83.589966
					CHANNELS 3 Zrotation Yrotation Xrotation
					JOINT joint_7
					{
						OFFSET -3.824402 -146.174217 -19.015991
						CHANNELS 3 Zrotation Yrotation Xrotation
						JOINT joint_8
						{
							OFFSET 134.098145 -24.802032 -261.230957
							CHANNELS 3 Zrotation Yrotation Xrotation
							JOINT joint_9
							{
								OFFSET 123.899048 209.340523 59.187012
								CHANNELS 3 Zrotation Yrotation Xrotation
								End Site
								{
									OFFSET 0.000000 0.000000 0.000000
								}
							}
						}
					}
				}
				JOINT joint_10
				{
					OFFSET -0.423798 31.098438 84.831055
					CHANNELS 3 Zrotation Yrotation Xrotation
					JOINT joint_11
					{
						OFFSET 3.093201 146.891491 -12.504028
						CHANNELS 3 Zrotation Yrotation Xrotation
						JOINT joint_12
						{
							OFFSET 195.631927 -20.967743 -219.380981
							CHANNELS 3 Zrotation Yrotation Xrotation
							JOINT joint_13
							{
								OFFSET -8.651001 -247.511261 -36.616089
								CHANNELS 3 Zrotation Yrotation Xrotation
								End Site
								{
									OFFSET 0.000000 0.000000 0.000000
								}
							}
						}
					}
				}
			}
		}
	}
	JOINT joint_14
	{
		OFFSET 6.948090 -87.642914 -106.942017
		CHANNELS 3 Zrotation Yrotation Xrotation
		JOINT joint_15
		{
			OFFSET -34.394226 4.543823 -458.972961
			CHANNELS 3 Zrotation Yrotation Xrotation
			JOINT joint_16
			{
				OFFSET -17.051544 6.964645 -485.636009
				CHANNELS 3 Zrotation Yrotation Xrotation
				JOINT joint_17
				{
					OFFSET 190.520630 40.462875 -83.888000
					CHANNELS 3 Zrotation Yrotation Xrotation
					End Site
					{
						OFFSET 0.000000 0.000000 0.000000
					}
				}
			}
		}
	}
	JOINT joint_18
	{
		OFFSET 3.929901 87.535423 -107.188965
		CHANNELS 3 Zrotation Yrotation Xrotation
		JOINT joint_19
		{
			OFFSET -34.463440 -10.383845 -458.873047
			CHANNELS 3 Zrotation Yrotation Xrotation
			JOINT joint_20
			{
				OFFSET 14.641205 -11.071349 -485.637978
				CHANNELS 3 Zrotation Yrotation Xrotation
				JOINT joint_21
				{
					OFFSET 194.569275 -4.161928 -84.249998
					CHANNELS 3 Zrotation Yrotation Xrotation
					End Site
					{
						OFFSET 0.000000 0.000000 0.000000
					}
				}
			}
		}
	}
}
MOTION
Frames: 10
Frame Time: 0.016667
-670.126770 -77.143799 1155.708008 5.073237 -0.457726 -0.313977 0.787489 -6.587273 -0.249014 0.964934 0.767085 0.038448 0.913783 -1.481969 -0.063995 -1.078500 3.616284 4.142369 0.000000 0.000000 0.000000 0.170619 13.596858 4.309164 6.577249 17.401509 -4.411422 -48.626914 11.588577 -86.626739 0.000000 0.000000 0.000000 -3.972927 21.091863 -7.334577 2.371098 20.904197 21.050302 33.930634 -34.552126 51.966180 0.000000 0.000000 0.000000 -2.529867 0.804147 -1.345346 -2.628138 0.847849 0.113438 -2.603487 -0.344945 -1.070510 0.000000 0.000000 0.000000 -0.715872 1.594310 3.057727 -0.515804 1.667265 0.422307 -0.453427 -1.822967 -0.234191 0.000000 0.000000 0.000000 
-668.679993 -77.043327 1156.042969 5.192828 -0.064519 -0.357111 0.909146 -6.401626 -0.326264 1.085598 0.754702 0.034363 1.033477 -1.502710 -0.067832 -1.109696 3.120907 4.333025 0.000000 0.000000 0.000000 -0.424656 13.877984 4.600047 5.891482 17.429724 -4.945971 -48.597803 11.864179 -85.543069 0.000000 0.000000 0.000000 -4.311835 21.146746 -7.603452 3.120962 21.007543 21.333925 33.993120 -34.961589 51.241944 0.000000 0.000000 0.000000 -2.589033 0.536794 -1.302351 -2.687576 0.720606 0.159548 -2.658493 -0.337197 -1.096394 0.000000 0.000000 0.000000 -0.756047 1.296272 3.105318 -0.556476 1.544347 0.442156 -0.498699 -1.817763 -0.253584 0.000000 0.000000 0.000000 
-666.555786 -77.161781 1156.010986 5.226980 0.563554 -0.406671 0.935621 -6.083349 -0.436654 1.104386 0.742514 0.047593 1.051566 -1.421366 -0.080416 -1.140697 1.886962 4.653493 0.000000 0.000000 0.000000 -0.032041 14.112759 4.443680 4.189218 17.711445 -4.379550 -49.552409 11.792992 -83.733942 0.000000 0.000000 0.000000 -4.312477 21.405281 -7.228221 3.756418 21.108513 20.915557 34.424929 -35.520730 50.114681 0.000000 0.000000 0.000000 -2.623261 0.070851 -1.238281 -2.722167 0.532452 0.221992 -2.687098 -0.302283 -1.116499 0.000000 0.000000 0.000000 -0.780073 0.813438 3.197641 -0.575691 1.366217 0.428669 -0.523059 -1.802460 -0.263746 0.000000 0.000000 0.000000 
-663.859558 -77.416405 1155.725952 5.202049 1.367138 -0.465165 0.896036 -5.568601 -0.570711 1.050798 0.707075 0.068784 0.998507 -1.269678 -0.095821 -1.193214 -0.008834 5.097297 0.000000 0.000000 0.000000 1.074988 14.390275 3.992847 1.624823 18.214556 -3.078195 -51.220863 11.670991 -81.115651 0.000000 0.000000 0.000000 -4.031937 21.817390 -6.417383 4.363814 21.219532 20.011454 35.147401 -36.184689 48.603549 0.000000 0.000000 0.000000 -2.641208 -0.524660 -1.158273 -2.741114 0.271452 0.302577 -2.697903 -0.232405 -1.136194 0.000000 0.000000 0.000000 -0.793782 0.213841 3.326085 -0.580332 1.111642 0.391416 -0.534361 -1.760448 -0.267701 0.000000 0.000000 0.000000 
-660.394104 -77.771629 1155.514038 5.222800 2.296087 -0.505973 0.814075 -5.242776 -0.754406 0.966809 0.677084 0.113188 0.910429 -1.177411 -0.121986 -1.229859 -1.796763 5.379338 0.000000 0.000000 0.000000 2.106703 14.771395 3.606525 -0.396488 18.691915 -1.932763 -52.616089 11.803248 -79.032423 0.000000 0.000000 0.000000 -3.525943 22.293400 -5.479649 5.196647 21.406323 19.030710 36.020782 -36.839745 46.810143 0.000000 0.000000 0.000000 -2.672702 -1.265309 -1.080036 -2.771017 0.116759 0.379165 -2.722489 -0.228821 -1.147765 0.000000 0.000000 0.000000 -0.811735 -0.579958 3.451656 -0.600286 1.042405 0.344125 -0.553578 -1.834375 -0.277466 0.000000 0.000000 0.000000 
-655.958435 -78.383919 1155.569946 5.416464 3.416694 -0.518558 0.681343 -5.525271 -0.996222 0.852917 0.706313 0.186876 0.783318 -1.226239 -0.167731 -1.192685 -2.930089 5.277001 0.000000 0.000000 0.000000 2.602473 15.192713 3.556532 -0.733691 18.941880 -1.502948 -53.144706 12.054059 -78.880904 0.000000 0.000000 0.000000 -2.913052 22.762515 -4.693497 6.008338 21.664144 18.548351 36.522990 -37.204434 45.387432 0.000000 0.000000 0.000000 -2.756485 -2.217896 -0.987360 -2.848763 0.104045 0.445990 -2.798434 -0.315395 -1.162640 0.000000 0.000000 0.000000 -0.864840 -1.700236 3.575881 -0.672872 1.271144 0.294735 -0.615038 -2.083095 -0.309004 0.000000 0.000000 0.000000 
-650.627686 -79.268730 1155.770020 5.749282 4.748845 -0.509323 0.491241 -6.267005 -1.278270 0.691892 0.781442 0.276270 0.602820 -1.368875 -0.226505 -1.094013 -3.699431 4.900306 0.000000 0.000000 0.000000 2.863562 15.642176 3.717265 0.111424 19.049482 -1.468441 -53.153460 12.303347 -80.150402 0.000000 0.000000 0.000000 -2.167290 23.251286 -3.939737 6.681482 21.958547 18.420544 36.703998 -37.333504 44.334581 0.000000 0.000000 0.000000 -2.882375 -3.375456 -0.871325 -2.966281 0.160909 0.510298 -2.915550 -0.444342 -1.186432 0.000000 0.000000 0.000000 -0.949773 -3.119287 3.713529 -0.788821 1.696810 0.238040 -0.713151 -2.439139 -0.358380 0.000000 0.000000 0.000000 
-644.714111 -79.622757 1156.196045 5.971289 5.987879 -0.441311 0.353748 -7.022184 -1.601686 0.585170 0.849481 0.374731 0.473820 -1.551861 -0.296977 -0.984753 -4.150274 4.450594 0.000000 0.000000 0.000000 2.892277 16.121738 3.715387 0.855090 19.120928 -1.340206 -53.138524 12.563347 -81.147210 0.000000 0.000000 0.000000 -1.125035 23.752908 -2.792742 9.352672 22.548395 17.275466 38.464401 -37.838484 40.801274 0.000000 0.000000 0.000000 -2.962714 -4.665558 -0.843459 -3.036797 0.705587 0.524095 -3.000890 -0.820759 -1.143322 0.000000 0.000000 0.000000 -0.979584 -4.659093 3.745996 -0.872506 2.642000 0.174165 -0.758873 -3.051639 -0.390394 0.000000 0.000000 0.000000 
-638.521118 -78.821800 1156.920044 5.887882 6.936725 -0.314838 0.336157 -7.588650 -1.952530 0.595496 0.898254 0.446427 0.464876 -1.753558 -0.366203 -0.908486 -4.205429 4.115402 0.000000 0.000000 0.000000 2.587776 16.607218 3.253271 0.790961 19.185870 -0.798377 -53.414946 12.765026 -80.929796 0.000000 0.000000 0.000000 0.238689 24.257253 -1.337747 17.015344 23.793242 14.710562 42.779785 -37.083806 31.444315 0.000000 0.000000 0.000000 -2.940966 -6.140341 -0.956189 -2.997460 2.187476 0.432463 -3.006503 -1.648706 -0.968558 0.000000 0.000000 0.000000 -0.855150 -6.207768 3.577126 -0.833316 4.334075 0.120798 -0.647054 -4.040492 -0.362450 0.000000 0.000000 0.000000 
-631.934937 -77.171669 1157.907959 5.591736 7.722109 -0.146712 0.395682 -8.153453 -2.340820 0.683757 0.946773 0.475488 0.538405 -1.976252 -0.418047 -0.851964 -3.858969 3.877549 0.000000 0.000000 0.000000 1.961324 17.097825 2.466651 0.391519 19.208098 -0.044214 -53.738856 12.967887 -80.118357 0.000000 0.000000 0.000000 1.664745 24.977252 -0.341291 28.099987 25.315239 13.072087 46.179624 -30.520570 18.744392 0.000000 0.000000 0.000000 -2.849430 -7.842571 -1.161938 -2.879400 4.447138 0.246500 -2.958829 -2.778842 -0.704975 0.000000 0.000000 0.000000 -0.612059 -7.843180 3.250461 -0.699589 6.645176 0.084598 -0.403053 -5.277960 -0.282975 0.000000 0.000000 0.000000 
